<svg width="174" height="22" viewBox="0 0 174 22" fill="none" xmlns="http://www.w3.org/2000/svg">
<path d="M10.6591 20.69H5.03257V6.78014H0V2.87286H15.6916V6.78014H10.6591V20.69Z" fill="#252324"/>
<path d="M26.1187 5.99868C26.3896 5.99868 26.6709 6.02994 26.9627 6.09246C27.2752 6.15497 27.5045 6.22791 27.6503 6.31127C27.6503 6.76972 27.5982 7.53034 27.494 8.59312C27.3898 9.63506 27.2961 10.3748 27.2127 10.8124C27.0043 10.7916 26.6188 10.7812 26.0562 10.7812C24.7433 10.7812 23.5763 10.8541 22.5552 11V20.69H17.2101V6.31127H21.68L22.3052 8.62437H22.3364C22.9408 7.8325 23.5868 7.19692 24.2744 6.71762C24.9621 6.23833 25.5769 5.99868 26.1187 5.99868Z" fill="#252324"/>
<path d="M36.6725 20.69L36.1723 18.7208C35.2138 20.2837 33.8801 21.0651 32.1713 21.0651C30.7751 21.0651 29.629 20.6796 28.7329 19.9086C27.8577 19.1167 27.42 18.0123 27.42 16.5952C27.42 15.72 27.6701 14.9594 28.1702 14.3134C28.6912 13.6465 29.3997 13.1777 30.2958 12.9067C31.4628 12.5733 33.2653 12.3858 35.7035 12.3441C35.7035 10.9687 35.641 10.2394 35.5159 10.156C35.4117 10.0727 35.0783 10.031 34.5157 10.031C34.1614 10.031 33.6717 10.0518 33.0465 10.0935C32.0463 10.1352 30.6917 10.2498 28.983 10.4374C28.8162 9.31205 28.6912 8.1034 28.6079 6.8114C29.7123 6.58217 30.8689 6.39462 32.0775 6.24875C33.2862 6.08204 34.3698 5.99868 35.3284 5.99868C36.9955 5.99868 38.2458 6.28001 39.0794 6.84266C39.9129 7.38446 40.4547 8.1034 40.7048 8.99947C40.9549 9.89554 41.0695 11.0313 41.0486 12.4066L41.0174 17.0016L41.1111 20.69H36.6725ZM33.9843 17.5642C34.5261 17.5642 35.0991 17.46 35.7035 17.2516V14.9385H35.4534C33.9113 14.9385 33.0569 15.0219 32.8902 15.1886C32.786 15.2928 32.7027 15.4491 32.6402 15.6575C32.5985 15.8659 32.5777 16.0638 32.5777 16.2514C32.5777 16.7515 32.6923 17.0954 32.9215 17.2829C33.1507 17.4704 33.505 17.5642 33.9843 17.5642Z" fill="#252324"/>
<path d="M57.372 7.21775C57.5596 7.44698 57.695 8.02005 57.7784 8.93696C57.8826 9.85386 57.9347 11.2501 57.9347 13.1256V20.69H52.5895V11.9065C52.5895 11.2396 52.5374 10.8229 52.4332 10.6562C52.2665 10.4478 51.881 10.3436 51.2767 10.3436C50.9849 10.3436 50.7661 10.354 50.6202 10.3748C50.0367 10.3957 49.4324 10.5311 48.8073 10.7812V20.69H43.4621V6.31127H47.807L48.4009 8.71815C49.9013 6.90517 51.6934 5.99868 53.7773 5.99868C54.5275 5.99868 55.2256 6.10288 55.8716 6.31127C56.5385 6.51965 57.0386 6.82182 57.372 7.21775Z" fill="#252324"/>
<path d="M72.0319 15.8138C72.0319 17.6684 71.438 19.0021 70.2502 19.8148C69.0832 20.6275 67.4161 21.0339 65.2488 21.0339C63.7276 21.0339 61.9771 20.8151 59.9975 20.3775C60.0391 19.9607 60.1329 19.3668 60.2788 18.5957C60.4455 17.8039 60.5809 17.1995 60.6851 16.7828C61.4353 16.9078 62.2689 17.012 63.1858 17.0954C64.1027 17.1579 64.8842 17.1891 65.5302 17.1891C66.0928 17.1891 66.4366 17.1579 66.5617 17.0954C66.5825 17.0745 66.6034 17.0224 66.6242 16.9391C66.6659 16.8349 66.6867 16.7307 66.6867 16.6265C66.6867 16.2097 66.4262 15.9284 65.9053 15.7825C65.7385 15.7408 65.103 15.5637 63.9985 15.2511C62.894 14.9385 61.9876 14.3759 61.279 13.5632C60.5914 12.7296 60.2475 11.6981 60.2475 10.4686C60.2475 9.82261 60.3934 9.10367 60.6851 8.31179C60.9769 7.51992 61.2895 7.01979 61.6229 6.8114C61.8729 6.64469 62.4773 6.47798 63.4359 6.31127C64.3944 6.12372 65.2801 6.02994 66.0928 6.02994C67.8224 6.02994 69.5625 6.15497 71.3129 6.40504C71.3129 6.78014 71.2608 7.41572 71.1566 8.31179C71.0524 9.18702 70.9587 9.73925 70.8753 9.96848C69.104 9.73925 67.6766 9.62464 66.5929 9.62464C66.0303 9.62464 65.6656 9.6559 65.4989 9.71841C65.4572 9.73925 65.4155 9.80177 65.3739 9.90596C65.3322 9.98932 65.3113 10.1039 65.3113 10.2498C65.3113 10.5415 65.4051 10.7499 65.5927 10.875C65.7802 11.0208 66.2699 11.198 67.0618 11.4064C67.9996 11.6773 68.8019 11.9586 69.4687 12.2503C70.1564 12.5421 70.7503 12.9797 71.2504 13.5632C71.7714 14.1467 72.0319 14.8969 72.0319 15.8138Z" fill="#252324"/>
<path d="M80.6188 4.68584C80.473 4.83171 80.4 5.27975 80.4 6.02994V6.31127H83.7134V9.37457H80.4V20.69H75.0549V9.37457H72.7105V6.59259L75.0549 6.31127V5.84239C75.0549 4.92548 75.1799 4.05025 75.43 3.2167C75.68 2.38315 75.9093 1.88302 76.1177 1.71631C76.7637 1.1745 78.139 0.903595 80.2437 0.903595C81.3899 0.903595 82.6715 0.98695 84.0885 1.15366C84.0885 1.40373 84.0468 1.90386 83.9635 2.65405C83.9009 3.40425 83.8384 4.03984 83.7759 4.56081L82.4318 4.52955C81.3274 4.52955 80.723 4.58164 80.6188 4.68584Z" fill="#252324"/>
<path d="M93.7895 16.9391C94.3105 16.9391 95.2795 16.887 96.6966 16.7828C96.8841 16.7828 97.2279 16.7619 97.7281 16.7203L98.197 19.9398C96.5924 20.69 94.5085 21.0651 91.9453 21.0651C89.5488 21.0651 87.7046 20.4608 86.4126 19.2522C85.1414 18.0435 84.5058 16.2201 84.5058 13.782C84.5058 12.5316 84.6621 11.323 84.9747 10.156C85.3081 8.98905 85.6832 8.17634 86.1 7.71789C86.5376 7.25943 87.3503 6.86349 88.5382 6.53007C89.726 6.19665 90.9034 6.02994 92.0703 6.02994C93.9458 6.02994 95.3524 6.36336 96.2902 7.0302C97.2279 7.69705 97.8427 8.62437 98.1344 9.81219C98.4262 10.9792 98.572 12.5525 98.572 14.5322C97.155 14.6155 95.7692 14.6572 94.4147 14.6572H89.976C89.976 15.3241 90.1115 15.8242 90.3824 16.1576C90.6741 16.491 91.0805 16.7098 91.6015 16.814C92.1224 16.8974 92.8518 16.9391 93.7895 16.9391ZM90.2886 9.74967C90.1636 9.81219 90.0698 10.0831 90.0073 10.5624C89.9448 11.0417 89.9031 11.5835 89.8823 12.1878H91.5077C92.4871 12.1878 93.1956 12.1774 93.6332 12.1566C93.6332 11.1563 93.4874 10.4478 93.1956 10.031C92.9247 9.61422 92.4454 9.40583 91.7578 9.40583C91.1951 9.40583 90.7054 9.52044 90.2886 9.74967Z" fill="#252324"/>
<path d="M109.362 5.99868C109.633 5.99868 109.914 6.02994 110.206 6.09246C110.519 6.15497 110.748 6.22791 110.894 6.31127C110.894 6.76972 110.842 7.53034 110.737 8.59312C110.633 9.63506 110.539 10.3748 110.456 10.8124C110.248 10.7916 109.862 10.7812 109.299 10.7812C107.987 10.7812 106.82 10.8541 105.799 11V20.69H100.453V6.31127H104.923L105.548 8.62437H105.58C106.184 7.8325 106.83 7.19692 107.518 6.71762C108.205 6.23833 108.82 5.99868 109.362 5.99868Z" fill="#252324"/>
<path d="M122.894 16.7828H117.705L116.767 20.69H111.016L116.767 2.87286H124.113L129.614 20.69H123.832L122.894 16.7828ZM120.268 6.71762L118.424 13.3131H122.144L120.393 6.71762H120.268Z" fill="#6A04FE"/>
<path d="M145.266 6.31127V20.69H140.921L140.327 18.2832C138.827 20.0961 137.035 21.0026 134.951 21.0026C134.201 21.0026 133.492 20.8984 132.825 20.69C132.179 20.4817 131.69 20.1795 131.356 19.7836C131.169 19.5543 131.023 18.9813 130.919 18.0644C130.835 17.1474 130.794 15.7512 130.794 13.8758V6.31127H136.139V13.8132C136.139 14.23 136.149 14.7197 136.17 15.2824C136.191 15.845 136.253 16.1993 136.358 16.3452C136.503 16.5535 136.92 16.6577 137.608 16.6577L138.108 16.6265C138.692 16.6056 139.296 16.4702 139.921 16.2201V6.31127H145.266Z" fill="#6A04FE"/>
<path d="M154.456 14.7822C154.456 15.1573 154.466 15.5533 154.487 15.9701C154.508 16.366 154.57 16.6161 154.675 16.7203C154.821 16.8661 155.331 16.9391 156.206 16.9391L157.269 16.9078C157.457 17.9081 157.55 19.0646 157.55 20.3775C157.154 20.5233 156.571 20.6588 155.8 20.7838C155.05 20.9089 154.331 20.9714 153.643 20.9714C152.205 20.9714 151.09 20.6588 150.299 20.0336C149.527 19.3876 149.142 18.3978 149.142 17.0641V9.37457H146.798V6.53007L149.142 6.31127L150.549 2.87286L154.456 2.65405V6.31127H157.769V9.37457H154.456V14.7822Z" fill="#6A04FE"/>
<path d="M166.307 21.0964C163.806 21.0964 161.931 20.5129 160.681 19.3459C159.451 18.1581 158.836 16.2931 158.836 13.7507C158.836 12.3545 158.961 11.1355 159.212 10.0935C159.482 9.03073 159.805 8.29095 160.181 7.87418C160.66 7.33237 161.535 6.88433 162.806 6.53007C164.098 6.17581 165.307 5.99868 166.432 5.99868C169.12 5.99868 171.038 6.57175 172.184 7.71789C173.33 8.86402 173.903 10.6978 173.903 13.2193C173.903 15.9284 173.288 17.9185 172.059 19.1897C170.829 20.4608 168.912 21.0964 166.307 21.0964ZM166.401 17.4392C167.214 17.4392 167.745 17.1579 167.995 16.5952C168.245 16.0117 168.37 14.9906 168.37 13.5319C168.37 12.5108 168.318 11.7294 168.214 11.1875C168.11 10.6249 167.912 10.2185 167.62 9.96848C167.349 9.69757 166.922 9.56212 166.338 9.56212C165.505 9.56212 165.026 9.63506 164.901 9.78093C164.734 9.9268 164.598 10.3853 164.494 11.1563C164.39 11.9273 164.338 12.7296 164.338 13.5632C164.338 14.9802 164.473 15.9805 164.744 16.564C165.036 17.1474 165.588 17.4392 166.401 17.4392Z" fill="#6A04FE"/>
</svg>
